<svg xmlns="http://www.w3.org/2000/svg" width="1756.857" height="476.838"><path fill="#b81d24" stroke="#b81d24" stroke-width="1.431" d="M.715 238.362V.724l37.333.381 37.333.382 46.933 133.504c25.813 73.427 47.319 133.89 47.79 134.362.473.472.86-59.765.86-133.862V.771h72.963v446.047l-4.65.804c-9.53 1.648-76.971 8.501-77.588 7.884-.353-.353-20.46-56.473-44.684-124.711l-44.042-124.07-.365 130.22c-.2 71.621-.897 130.22-1.548 130.22-1.774 0-58.781 7.008-64.97 7.987l-5.365.849zM1730.38 472.894c-11.41-1.397-27.936-3.648-36.725-5.002l-15.98-2.463-8.513-23.095c-4.681-12.703-16.41-44.824-26.061-71.38-9.652-26.557-17.944-48.275-18.427-48.264-.483.012-12.464 29.043-26.626 64.514-14.161 35.47-26.225 64.788-26.809 65.148-1.244.77-62.965-4.993-68.578-6.402l-3.822-.96 45.034-110.16c24.768-60.589 45.343-111.77 45.722-113.738.458-2.378-12.27-39.43-37.993-110.597-21.275-58.86-38.682-107.628-38.682-108.372 0-.815 14.923-1.346 37.555-1.338l37.555.013 20.662 60.29c15.308 44.663 20.971 59.586 21.852 57.571.653-1.496 11.683-28.472 24.51-59.946l23.322-57.226 38.705-.38 38.704-.381-44.892 108.992C1686.2 169.663 1666 219.824 1666 221.185c0 2.074 84.53 241.626 88.691 251.345 1.637 3.822 3.688 3.792-24.312.364zm-313.314-33.728c-9.836-1.041-25.126-2.648-33.978-3.57l-16.095-1.677V.77h74.394V441.414l-3.218-.178c-1.77-.097-11.267-1.029-21.103-2.07zM324.044 220.511V.771h178.832v68.672H399.869V185.326h88.7v70.102h-88.7v55.08c0 30.295.16 55.079.357 55.077.197 0 15.487-1.257 33.978-2.789 18.491-1.532 41.507-3.23 51.146-3.775l17.526-.99v33.867c0 25.839-.424 34.002-1.789 34.435-.983.311-38.162 3.202-82.62 6.424-44.458 3.221-83.89 6.226-87.628 6.676l-6.795.818zm879.138 204.43c-47.998-2.556-87.431-4.724-87.628-4.818-.196-.093-.357-94.485-.357-209.76V.77h77.255v354.437l21.818.969c28.784 1.279 64.481 3.505 72.963 4.55l6.796.838v34.202c0 26.509-.402 34.158-1.788 34.011-.984-.104-41.06-2.281-89.059-4.837zm-557.24-180.068V69.443H575.84V.77h214.598v68.672h-68.672v347.38l-6.795.807c-3.738.443-20.799 1.226-37.913 1.74l-31.117.933zm218.89-36.657V.771h177.401v68.672H937.795V185.326h91.562v70.102h-91.562v160.234h-72.963z"/></svg>